<svg width="79" height="73" viewBox="0 0 79 73" fill="none" xmlns="http://www.w3.org/2000/svg">
<path d="M26.3196 72.904C25.9996 72.904 25.6796 72.808 25.3596 72.616C25.0396 72.488 24.8796 72.232 24.8796 71.848C24.8796 71.528 24.9756 71.24 25.1676 70.984C25.3596 70.792 25.5516 70.568 25.7436 70.312C27.9196 68.072 29.9676 65.704 31.8876 63.208C33.8076 60.776 35.6316 58.28 37.3596 55.72C40.6236 50.984 43.6956 46.184 46.5756 41.32C49.4556 36.456 52.1436 31.432 54.6396 26.248C55.3436 24.712 56.0796 22.984 56.8476 21.064C57.6796 19.144 58.3516 17.192 58.8636 15.208C59.4396 13.16 59.7276 11.304 59.7276 9.64C59.7276 7.016 59.0236 5.192 57.6156 4.168C56.2076 3.08 54.2876 2.536 51.8556 2.536C48.7836 2.536 45.4236 3.24 41.7756 4.648C38.1916 5.992 34.5756 7.784 30.9276 10.024C27.3436 12.2 23.9836 14.504 20.8476 16.936C17.7756 19.368 15.2156 21.64 13.1676 23.752C11.9516 25.032 10.6396 26.568 9.23163 28.36C7.82363 30.152 6.60763 32.072 5.58363 34.12C4.62363 36.104 4.14363 38.024 4.14363 39.88C4.14363 41.48 4.52763 42.664 5.29563 43.432C6.12763 44.2 7.18363 44.68 8.46363 44.872C9.74363 45.064 11.0236 45.16 12.3036 45.16C13.9036 45.16 15.6316 45 17.4876 44.68C19.4076 44.36 21.0716 43.816 22.4796 43.048C22.7356 42.92 22.8956 42.856 22.9596 42.856C23.3436 42.856 23.5356 43.08 23.5356 43.528C23.5356 44.232 22.9916 44.84 21.9036 45.352C20.8156 45.8 19.5356 46.184 18.0636 46.504C16.5916 46.76 15.1836 46.952 13.8396 47.08C12.5596 47.208 11.6636 47.272 11.1516 47.272C9.93563 47.272 8.52763 47.144 6.92763 46.888C5.32763 46.568 4.07963 45.928 3.18362 44.968C1.51963 43.176 0.687625 41.096 0.687625 38.728C0.687625 36.168 1.55163 33.512 3.27963 30.76C5.07163 28.008 7.43963 25.256 10.3836 22.504C13.3276 19.752 16.5916 17.128 20.1756 14.632C23.7596 12.072 27.3756 9.8 31.0236 7.816C34.6716 5.832 38.0956 4.232 41.2956 3.016C44.4956 1.736 47.1516 0.999998 49.2636 0.807997C49.8396 0.679998 50.4156 0.615999 50.9916 0.615999C51.5676 0.615999 52.1436 0.615999 52.7196 0.615999C55.6636 0.615999 58.1276 1.192 60.1116 2.344C62.1596 3.496 63.1836 5.736 63.1836 9.064C63.1836 11.56 62.5436 14.568 61.2636 18.088C59.9836 21.608 58.3196 25.352 56.2716 29.32C54.2876 33.224 52.1436 37.128 49.8396 41.032C47.5356 44.872 45.3276 48.424 43.2156 51.688C41.1036 54.952 39.3436 57.64 37.9356 59.752L40.1436 57.832C42.7676 55.528 45.2636 53.096 47.6316 50.536C49.9996 47.912 52.3356 45.32 54.6396 42.76C57.3276 39.752 59.9836 36.712 62.6076 33.64C65.2956 30.568 67.9196 27.464 70.4796 24.328C70.9276 23.752 71.5356 23.112 72.3036 22.408C73.0716 21.64 73.8716 21.256 74.7036 21.256C75.5356 21.256 76.0796 21.608 76.3356 22.312C76.5916 23.016 76.7196 23.688 76.7196 24.328C76.7196 25.16 76.6236 25.992 76.4316 26.824C76.2396 27.656 75.9836 28.488 75.6636 29.32C74.8956 31.56 74.0316 34.152 73.0716 37.096C72.1756 39.976 71.4076 42.888 70.7676 45.832C70.1276 48.712 69.8076 51.336 69.8076 53.704C69.8076 54.152 69.8396 54.792 69.9036 55.624C70.0316 56.456 70.2556 57.224 70.5756 57.928C70.8956 58.568 71.3436 58.888 71.9196 58.888C72.6236 58.888 73.2636 58.44 73.8396 57.544C74.4156 56.584 74.8956 55.432 75.2796 54.088C75.6636 52.744 75.9516 51.496 76.1436 50.344C76.3996 49.128 76.5276 48.232 76.5276 47.656C76.5276 46.824 76.3996 46.248 76.1436 45.928C75.9516 45.544 75.8556 45.224 75.8556 44.968C75.8556 44.584 76.0476 44.392 76.4316 44.392C77.0076 44.392 77.4236 44.84 77.6796 45.736C77.9356 46.632 78.0956 47.592 78.1596 48.616C78.2876 49.64 78.3516 50.344 78.3516 50.728C78.3516 51.752 78.1596 53.096 77.7756 54.76C77.4556 56.424 76.8796 57.928 76.0476 59.272C75.2796 60.552 74.1916 61.192 72.7836 61.192C71.6956 61.192 70.7356 60.776 69.9036 59.944C69.1356 59.048 68.5916 58.088 68.2716 57.064C68.0156 56.168 67.8236 55.24 67.6956 54.28C67.6316 53.32 67.5996 52.424 67.5996 51.592C67.5996 48.264 67.9836 44.776 68.7516 41.128C69.5196 37.48 70.4476 34.088 71.5356 30.952C71.7916 30.248 72.1436 29.224 72.5916 27.88C73.0396 26.472 73.2636 25.448 73.2636 24.808C73.2636 24.552 73.1996 24.424 73.0716 24.424C72.9436 24.424 72.7516 24.584 72.4956 24.904C72.2396 25.224 72.0796 25.416 72.0156 25.48C66.8316 31.88 61.5196 38.056 56.0796 44.008C53.7116 46.568 51.3116 49.16 48.8796 51.784C46.5116 54.408 44.0156 56.904 41.3916 59.272C40.2396 60.296 39.0876 61.32 37.9356 62.344C36.7836 63.432 35.6636 64.52 34.5756 65.608C34.1276 65.992 33.6796 66.376 33.2316 66.76C32.8476 67.208 32.4636 67.624 32.0796 68.008C31.8236 68.264 31.5676 68.52 31.3116 68.776C31.0556 69.096 30.8316 69.416 30.6396 69.736C30.1916 70.44 29.5836 71.144 28.8156 71.848C28.0476 72.552 27.2156 72.904 26.3196 72.904Z" fill="#F7F7F7"/>
</svg>
